<svg width="195" height="65" viewBox="0 0 195 65" fill="none" xmlns="http://www.w3.org/2000/svg">
<path d="M26.6656 40.3767C36.0632 40.3767 43.6814 32.7585 43.6814 23.3609C43.6814 13.9634 36.0632 6.34521 26.6656 6.34521C17.2681 6.34521 9.6499 13.9634 9.6499 23.3609C9.6499 32.7585 17.2681 40.3767 26.6656 40.3767Z" fill="url(#paint0_linear_2_214)"/>
<path d="M21.9695 0C9.8018 0 0 10.5735 0 23.6992C0 24.0638 0 24.4284 0 24.9146V64.2918C9.01315 64.2918 16.3363 56.392 16.3363 46.6693V46.5477V24.7931C16.3363 16.5287 22.5329 9.8443 30.194 9.8443C37.2919 9.8443 42.7616 15.9227 43.6629 22.4856C42.8743 10.2106 33.574 0 21.9695 0Z" fill="url(#paint1_linear_2_214)"/>
<path d="M161.695 50.5118V13.5288H167.954V50.5118H161.695Z" fill="#1C1C1C"/>
<path d="M179.058 50.5118V18.4101H170.099V13.5288H194.219V18.4101H185.318V50.5118H179.058Z" fill="#1C1C1C"/>
<path d="M64.6814 50.4987V13.8114H81.0312C83.8416 13.8114 86.1583 14.3431 87.9813 15.4065C89.8042 16.4699 91.1525 17.932 92.026 19.793C92.8995 21.616 93.3362 23.7048 93.3362 26.0595C93.3362 29.7054 92.1969 32.6298 89.9182 34.8325C87.6774 37.0353 84.6391 38.1367 80.8033 38.1367H70.8909V50.4987H64.6814ZM70.8909 33.2374H79.6639C82.1325 33.2374 83.9935 32.5918 85.2468 31.3005C86.5001 30.0093 87.1267 28.2622 87.1267 26.0595C87.1267 23.7048 86.5191 21.8818 85.3038 20.5906C84.1264 19.2993 82.3414 18.6536 79.9488 18.6536H70.8909V33.2374Z" fill="#1C1C1C"/>
<path d="M101.976 50.4624C99.7728 50.4624 98.1017 49.9307 96.9624 48.8673C95.823 47.7659 95.2533 45.9619 95.2533 43.4553V13.5302H101.463V42.8856C101.463 43.949 101.653 44.6706 102.033 45.0504C102.412 45.4302 103.742 45.6201 103.742 45.6201L104.254 50.2915C104.254 50.2915 102.849 50.4624 101.976 50.4624Z" fill="#1C1C1C"/>
<path d="M114.803 50.7629C113.094 50.7629 111.499 50.4591 110.018 49.8515C108.574 49.2438 107.416 48.3323 106.543 47.117C105.669 45.8637 105.232 44.3256 105.232 42.5026C105.232 39.92 106.106 37.8502 107.853 36.2931C109.638 34.698 112.372 33.9004 116.056 33.9004H124.715V32.7041C124.715 31.4128 124.506 30.3874 124.089 29.6278C123.709 28.8683 122.987 28.3176 121.924 27.9758C120.898 27.634 119.379 27.4631 117.366 27.4631C114.176 27.4631 111.195 27.9378 108.422 28.8873V24.2729C109.638 23.7791 111.119 23.3804 112.866 23.0765C114.613 22.7727 116.493 22.6208 118.506 22.6208C122.456 22.6208 125.456 23.4183 127.507 25.0134C129.596 26.6085 130.64 29.2101 130.64 32.818V50.1933H125.342L124.943 47.4588C123.842 48.5222 122.475 49.3387 120.841 49.9084C119.246 50.4781 117.233 50.7629 114.803 50.7629ZM116.455 46.3194C118.316 46.3194 119.93 46.0156 121.297 45.408C122.702 44.7623 123.842 43.9078 124.715 42.8444V38.1161H116.17C114.347 38.1161 113.018 38.4769 112.182 39.1985C111.385 39.8821 110.986 40.9455 110.986 42.3887C110.986 43.7939 111.461 44.8003 112.41 45.408C113.36 46.0156 114.708 46.3194 116.455 46.3194Z" fill="#1C1C1C"/>
<path d="M133.284 50.4987V23.4959H138.98L139.265 26.3443C140.481 25.3948 141.924 24.5973 143.595 23.9517C145.304 23.268 147.184 22.9262 149.235 22.9262C152.729 22.9262 155.273 23.7428 156.868 25.3759C158.463 27.0089 159.261 29.5535 159.261 33.0096V50.4987H153.108V33.2944C153.108 31.2056 152.672 29.7434 151.798 28.9079C150.963 28.0723 149.368 27.6546 147.013 27.6546C145.608 27.6546 144.222 27.9394 142.854 28.5091C141.525 29.0788 140.405 29.8194 139.493 30.7308V50.4987H133.284Z" fill="#1C1C1C"/>
<defs>
<linearGradient id="paint0_linear_2_214" x1="9.6499" y1="1.0071" x2="28.5271" y2="45.5333" gradientUnits="userSpaceOnUse">
<stop offset="0.0198252" stop-color="#0549B3"/>
<stop offset="1" stop-color="#69EDDC"/>
</linearGradient>
<linearGradient id="paint1_linear_2_214" x1="5.05965" y1="71.2039" x2="32.4953" y2="-14.3476" gradientUnits="userSpaceOnUse">
<stop stop-color="#0F58B7"/>
<stop offset="1" stop-color="#69ECDC"/>
</linearGradient>
</defs>
</svg>
