<svg width="195" height="65" viewBox="0 0 195 65" fill="none" xmlns="http://www.w3.org/2000/svg">
<path d="M162.385 50.8572V13.7703H168.662V50.8572H162.385Z" fill="white"/>
<path d="M179.797 50.8572V18.6653H170.813V13.7703H195V18.6653H186.074V50.8572H179.797Z" fill="white"/>
<path d="M65.0983 50.8447V14.0542H81.494C84.3123 14.0542 86.6355 14.5874 88.4636 15.6538C90.2917 16.7202 91.6437 18.1865 92.5197 20.0527C93.3957 21.8808 93.8336 23.9755 93.8336 26.3367C93.8336 29.9929 92.6911 32.9255 90.406 35.1345C88.1589 37.3434 85.1121 38.4479 81.2655 38.4479H71.3252V50.8447H65.0983ZM71.3252 33.5349H80.1229C82.5985 33.5349 84.4646 32.8874 85.7215 31.5925C86.9783 30.2976 87.6067 28.5457 87.6067 26.3367C87.6067 23.9755 86.9973 22.1474 85.7786 20.8525C84.5979 19.5576 82.8079 18.9101 80.4086 18.9101H71.3252V33.5349Z" fill="white"/>
<path d="M102.497 50.8082C100.288 50.8082 98.6125 50.275 97.47 49.2086C96.3274 48.1041 95.7561 46.2951 95.7561 43.7814V13.7722H101.983V43.2102C101.983 44.2766 102.174 45.0002 102.554 45.381C102.935 45.7619 104.268 45.9523 104.268 45.9523L104.782 50.6368C104.782 50.6368 103.373 50.8082 102.497 50.8082Z" fill="white"/>
<path d="M115.361 51.1096C113.647 51.1096 112.047 50.8049 110.562 50.1956C109.115 49.5862 107.953 48.6722 107.077 47.4534C106.201 46.1966 105.763 44.6542 105.763 42.8261C105.763 40.2363 106.639 38.1606 108.391 36.5991C110.181 34.9995 112.923 34.1997 116.617 34.1997H125.301V33C125.301 31.7051 125.091 30.6768 124.672 29.9151C124.292 29.1534 123.568 28.6012 122.502 28.2584C121.473 27.9157 119.95 27.7443 117.931 27.7443C114.732 27.7443 111.742 28.2203 108.962 29.1725V24.5451C110.181 24.05 111.666 23.6501 113.418 23.3454C115.17 23.0407 117.055 22.8884 119.074 22.8884C123.035 22.8884 126.044 23.6882 128.1 25.2878C130.195 26.8873 131.242 29.4962 131.242 33.1143V50.5383H125.929L125.529 47.7962C124.425 48.8626 123.054 49.6814 121.416 50.2527C119.817 50.824 117.798 51.1096 115.361 51.1096ZM117.017 46.6536C118.883 46.6536 120.502 46.349 121.873 45.7396C123.282 45.0921 124.425 44.2352 125.301 43.1688V38.4272H116.732C114.904 38.4272 113.571 38.789 112.733 39.5126C111.933 40.1982 111.533 41.2646 111.533 42.7118C111.533 44.121 112.009 45.1302 112.961 45.7396C113.913 46.349 115.265 46.6536 117.017 46.6536Z" fill="white"/>
<path d="M133.893 50.8447V23.766H139.606L139.892 26.6224C141.11 25.6702 142.558 24.8705 144.233 24.223C145.947 23.5375 147.833 23.1947 149.889 23.1947C153.393 23.1947 155.945 24.0135 157.544 25.6512C159.144 27.2889 159.944 29.8406 159.944 33.3064V50.8447H153.774V33.592C153.774 31.4973 153.336 30.031 152.46 29.1931C151.622 28.3553 150.022 27.9363 147.661 27.9363C146.252 27.9363 144.862 28.222 143.491 28.7932C142.158 29.3645 141.034 30.1072 140.12 31.0212V50.8447H133.893Z" fill="white"/>
<path d="M43.7108 23.4265C43.7108 32.799 36.1129 40.3969 26.7404 40.3969C17.3678 40.3969 9.76991 32.799 9.76991 23.4265C9.76991 14.0539 17.3678 6.456 26.7404 6.456C36.1129 6.456 43.7108 14.0539 43.7108 23.4265Z" fill="url(#paint0_linear_2_213)" stroke="white" stroke-width="0.186179"/>
<path d="M0.0930894 23.7658C0.0930894 10.6479 9.88727 0.0930894 22.0313 0.0930894C33.0256 0.0930894 41.961 9.28195 43.5093 20.7151C41.9335 14.8349 36.7889 9.77887 30.2789 9.77887C22.5382 9.77887 16.2891 16.5305 16.2891 24.8627V46.6785V46.8004C16.2891 56.4723 9.03099 64.3249 0.0930894 64.3791V24.9846V24.9817V24.9789V24.976V24.9732V24.9703V24.9675V24.9647V24.9618V24.959V24.9562V24.9533V24.9505V24.9477V24.9449V24.942V24.9392V24.9364V24.9336V24.9308V24.928V24.9252V24.9224V24.9196V24.9168V24.914V24.9112V24.9085V24.9057V24.9029V24.9001V24.8973V24.8946V24.8918V24.889V24.8863V24.8835V24.8808V24.878V24.8752V24.8725V24.8698V24.867V24.8643V24.8615V24.8588V24.8561V24.8533V24.8506V24.8479V24.8451V24.8424V24.8397V24.837V24.8343V24.8315V24.8288V24.8261V24.8234V24.8207V24.818V24.8153V24.8126V24.8099V24.8072V24.8046V24.8019V24.7992V24.7965V24.7938V24.7912V24.7885V24.7858V24.7831V24.7805V24.7778V24.7752V24.7725V24.7698V24.7672V24.7645V24.7619V24.7592V24.7566V24.7539V24.7513V24.7487V24.746V24.7434V24.7408V24.7381V24.7355V24.7329V24.7303V24.7276V24.725V24.7224V24.7198V24.7172V24.7146V24.712V24.7094V24.7068V24.7042V24.7016V24.699V24.6964V24.6938V24.6912V24.6886V24.686V24.6835V24.6809V24.6783V24.6757V24.6732V24.6706V24.668V24.6654V24.6629V24.6603V24.6578V24.6552V24.6527V24.6501V24.6475V24.645V24.6424V24.6399V24.6374V24.6348V24.6323V24.6297V24.6272V24.6247V24.6221V24.6196V24.6171V24.6146V24.612V24.6095V24.607V24.6045V24.602V24.5995V24.597V24.5944V24.5919V24.5894V24.5869V24.5844V24.5819V24.5794V24.5769V24.5744V24.572V24.5695V24.567V24.5645V24.562V24.5595V24.5571V24.5546V24.5521V24.5496V24.5472V24.5447V24.5422V24.5398V24.5373V24.5348V24.5324V24.5299V24.5275V24.525V24.5226V24.5201V24.5177V24.5152V24.5128V24.5103V24.5079V24.5054V24.503V24.5006V24.4981V24.4957V24.4933V24.4908V24.4884V24.486V24.4836V24.4811V24.4787V24.4763V24.4739V24.4715V24.469V24.4666V24.4642V24.4618V24.4594V24.457V24.4546V24.4522V24.4498V24.4474V24.445V24.4426V24.4402V24.4378V24.4354V24.433V24.4307V24.4283V24.4259V24.4235V24.4211V24.4188V24.4164V24.414V24.4116V24.4093V24.4069V24.4045V24.4021V24.3998V24.3974V24.3951V24.3927V24.3903V24.388V24.3856V24.3833V24.3809V24.3786V24.3762V24.3739V24.3715V24.3692V24.3668V24.3645V24.3621V24.3598V24.3575V24.3551V24.3528V24.3504V24.3481V24.3458V24.3435V24.3411V24.3388V24.3365V24.3341V24.3318V24.3295V24.3272V24.3249V24.3225V24.3202V24.3179V24.3156V24.3133V24.311V24.3087V24.3064V24.3041V24.3018V24.2994V24.2971V24.2948V24.2925V24.2902V24.2879V24.2857V24.2834V24.2811V24.2788V24.2765V24.2742V24.2719V24.2696V24.2673V24.265V24.2628V24.2605V24.2582V24.2559V24.2536V24.2514V24.2491V24.2468V24.2445V24.2423V24.24V24.2377V24.2355V24.2332V24.2309V24.2287V24.2264V24.2241V24.2219V24.2196V24.2173V24.2151V24.2128V24.2106V24.2083V24.2061V24.2038V24.2016V24.1993V24.1971V24.1948V24.1926V24.1903V24.1881V24.1858V24.1836V24.1813V24.1791V24.1769V24.1746V24.1724V24.1701V24.1679V24.1657V24.1634V24.1612V24.159V24.1567V24.1545V24.1523V24.1501V24.1478V24.1456V24.1434V24.1412V24.1389V24.1367V24.1345V24.1323V24.13V24.1278V24.1256V24.1234V24.1212V24.119V24.1167V24.1145V24.1123V24.1101V24.1079V24.1057V24.1035V24.1013V24.0991V24.0969V24.0947V24.0924V24.0902V24.088V24.0858V24.0836V24.0814V24.0792V24.077V24.0748V24.0726V24.0704V24.0682V24.0661V24.0639V24.0617V24.0595V24.0573V24.0551V24.0529V24.0507V24.0485V24.0463V24.0441V24.042V24.0398V24.0376V24.0354V24.0332V24.031V24.0288V24.0267V24.0245V24.0223V24.0201V24.0179V24.0158V24.0136V24.0114V24.0092V24.007V24.0049V24.0027V24.0005V23.9983V23.9962V23.994V23.9918V23.9897V23.9875V23.9853V23.9831V23.981V23.9788V23.9766V23.9745V23.9723V23.9701V23.968V23.9658V23.9636V23.9615V23.9593V23.9571V23.955V23.9528V23.9506V23.9485V23.9463V23.9442V23.942V23.9398V23.9377V23.9355V23.9334V23.9312V23.929V23.9269V23.9247V23.9226V23.9204V23.9183V23.9161V23.9139V23.9118V23.9096V23.9075V23.9053V23.9032V23.901V23.8989V23.8967V23.8946V23.8924V23.8903V23.8881V23.886V23.8838V23.8817V23.8795V23.8774V23.8752V23.8731V23.8709V23.8688V23.8666V23.8645V23.8623V23.8602V23.858V23.8559V23.8537V23.8516V23.8494V23.8473V23.8451V23.843V23.8408V23.8387V23.8366V23.8344V23.8323V23.8301V23.828V23.8258V23.8237V23.8215V23.8194V23.8173V23.8151V23.813V23.8108V23.8087V23.8065V23.8044V23.8022V23.8001V23.798V23.7958V23.7937V23.7915V23.7894V23.7873V23.7851V23.783V23.7808V23.7787V23.7765V23.7744V23.7723V23.7701V23.768V23.7658Z" fill="url(#paint1_linear_2_213)" stroke="white" stroke-width="0.186179"/>
<defs>
<linearGradient id="paint0_linear_2_213" x1="32.7988" y1="42.1276" x2="9.78496" y2="12.2985" gradientUnits="userSpaceOnUse">
<stop stop-color="white"/>
<stop offset="1" stop-color="#8DB8FE"/>
</linearGradient>
<linearGradient id="paint1_linear_2_213" x1="24.4492" y1="0.251073" x2="-13.5302" y2="61.8286" gradientUnits="userSpaceOnUse">
<stop stop-color="white"/>
<stop offset="1" stop-color="#8DB8FE"/>
</linearGradient>
</defs>
</svg>
