<svg width="27" height="24" viewBox="0 0 27 24" fill="none" xmlns="http://www.w3.org/2000/svg">
<path d="M24.0723 3.35655C23.4614 2.76797 22.7361 2.30107 21.9378 1.98251C21.1396 1.66396 20.2839 1.5 19.4199 1.5C18.5558 1.5 17.7001 1.66396 16.9019 1.98251C16.1036 2.30107 15.3783 2.76797 14.7674 3.35655L13.4997 4.57749L12.2319 3.35655C10.998 2.16822 9.3245 1.50062 7.57951 1.50062C5.83452 1.50062 4.16099 2.16822 2.92709 3.35655C1.6932 4.54489 1 6.15662 1 7.83718C1 9.51774 1.6932 11.1295 2.92709 12.3178L4.19485 13.5387L13.4997 22.5L22.8045 13.5387L24.0723 12.3178C24.6834 11.7295 25.1682 11.031 25.499 10.2622C25.8298 9.49339 26 8.66936 26 7.83718C26 7.00499 25.8298 6.18096 25.499 5.41216C25.1682 4.64336 24.6834 3.94486 24.0723 3.35655V3.35655Z" stroke="#444343" stroke-width="2" stroke-linecap="round" stroke-linejoin="round"/>
</svg>
