<svg width="14" height="13" viewBox="0 0 14 13" fill="none" xmlns="http://www.w3.org/2000/svg">
<path d="M12.0849 1.97879C11.7914 1.66848 11.4429 1.42233 11.0594 1.25439C10.6759 1.08644 10.2648 1 9.84965 1C9.4345 1 9.02342 1.08644 8.6399 1.25439C8.25638 1.42233 7.90792 1.66848 7.61444 1.97879L7.00536 2.62248L6.39627 1.97879C5.80346 1.35229 4.99943 1.00032 4.16106 1.00032C3.3227 1.00032 2.51867 1.35229 1.92585 1.97879C1.33304 2.60529 1 3.45501 1 4.34101C1 5.22702 1.33304 6.07673 1.92585 6.70324L2.53493 7.34693L7.00536 12.0714L11.4758 7.34693L12.0849 6.70324C12.3785 6.39308 12.6114 6.02482 12.7703 5.6195C12.9292 5.21418 13.011 4.77975 13.011 4.34101C13.011 3.90228 12.9292 3.46784 12.7703 3.06252C12.6114 2.65721 12.3785 2.28895 12.0849 1.97879Z" fill="#7D7D7D" fill-opacity="0.5" stroke="#F3F3F3" stroke-linecap="round" stroke-linejoin="round"/>
</svg>
